# xmcd CD database file
#
# Track frame offsets:
#	150
#	20775
#	44325
#
# Disc length: 863 seconds
#
# Revision: 0
# Processed by: cddbd v1.5PL3 Copyright (c) Steve Scherf et al.
# Submitted via: CDex 1.51
#
DISCID=21035d03
DTITLE=千聖 - KICK
DYEAR=1998
DGENRE=Rock
TTITLE0=KICK
TTITLE1=KICK 〜Megaforte Mix〜
TTITLE2=KICK 〜Back Track〜
EXTD=YEAR: 1998
EXTT0=
EXTT1=
EXTT2=
PLAYORDER=
